{"title":"P2.DIVX.2007.La.Vela.avi","uid":5006729,"size":1710094869,"categoryP":"video","categoryS":"movies","magnet":"?xt=urn:btih:17ed6ceb537d9831ff90e2b5d7a9032e98f9477e&amp;dn=P2.DIVX.2007.La.Vela.avi&amp;tr=udp%3A%2F%2Ftracker.openbittorrent.com%3A80&amp;tr=udp%3A%2F%2Fopen.demonii.com%3A1337&amp;tr=udp%3A%2F%2Ftracker.coppersurfer.tk%3A6969&amp;tr=udp%3A%2F%2Fexodus.desync.com%3A6969","seeders":0,"leechers":0,"uploader":"headdock","files":5,"time":1247760440,"description":"Plot:\n\n\nIn the Christmas Eve in New York, the workaholic executive Angela works until late night. When she is ready to drive to her family's Christmas party, her BMW does not start and she calls a cab. However, she is unable to leave the building, since all the exits are locked, and she returns to the garage, where she meets the night watch Thomas. The security guard tries to help her with a battery charger, but the car does not start. Angela asks him to open the gate; however, she is unexpectedly attacked by a psychopath, beginning her night of horror trapped in the building.  \n\n\n\nGeneral:\n\nComplete name                    : P2.DIVX.2007.La.Vela.avi\n\nImdb                             : http://www.imdb.com/title/tt0804516/\nLanguage                         : English\nSubtitles                        : N/A\nFormat                           : AVI\nFormat/Info                      : Audio Video Interleave\nFormat profile                   : OpenDML\nFile size                        : 1.59 GiB\nDuration                         : 4h 9mn\nOverall bit rate                 : 913 Kbps\nWriting application              : Lavf51.12.1\n\nVideo\nFormat                           : MPEG-4 Visual\nFormat profile                   : Simple@L1\nFormat settings, BVOP            : No\nFormat settings, QPel            : No\nFormat settings, GMC             : No warppoints\nFormat settings, Matrix          : Default\nCodec ID                         : DX50\nCodec ID/Hint                    : DivX 5\nDuration                         : 4h 9mn\nBit rate                         : 859 Kbps\nWidth                            : 720 pixels\nHeight                           : 576 pixels\nDisplay aspect ratio             : 5/4\nFrame rate                       : 25.000 fps\nStandard                         : PAL\nResolution                       : 24 bits\nColorimetry                      : 4:2:0\nScan type                        : Progressive\nBits/(Pixel*Frame)               : 0.083\nStream size                      : 1.50 GiB (94%)\nWriting library                  : Lavc51.40.4\n\nAudio\nFormat                           : MPEG Audio\nFormat version                   : Version 1\nFormat profile                   : Layer 3\nCodec ID                         : 55\nCodec ID/Hint                    : MP3\nDuration                         : 1h 33mn\nBit rate mode                    : Constant\nBit rate                         : 128 Kbps\nChannel(s)                       : 2 channels\nSampling rate                    : 48.0 KHz\nResolution                       : 16 bits\nStream size                      : 85.7 MiB (5%)\nAlignment                        : Aligned on interleaves\nInterleave, duration             : 24 ms (0.60 video frame)\nInterleave, preload duration     : 24 ms\nWriting library                  : LAME3.97\n\n","torrent":{"xt":"urn:btih:17ed6ceb537d9831ff90e2b5d7a9032e98f9477e","amp;dn":"P2.DIVX.2007.La.Vela.avi","amp;tr":["udp%3A%2F%2Ftracker.openbittorrent.com%3A80","udp%3A%2F%2Fopen.demonii.com%3A1337","udp%3A%2F%2Ftracker.coppersurfer.tk%3A6969","udp%3A%2F%2Fexodus.desync.com%3A6969"],"infoHash":"17ed6ceb537d9831ff90e2b5d7a9032e98f9477e","infoHashBuffer":{"type":"Buffer","data":[23,237,108,235,83,125,152,49,255,144,226,181,215,169,3,46,152,249,71,126]},"announce":[],"urlList":[]}}